<svg version="1.1" id="Layer_1" xmlns="http://www.w3.org/2000/svg" xmlns:xlink="http://www.w3.org/1999/xlink" x="0px" y="0px"
	 width="100%" viewBox="0 0 225 225" enable-background="new 0 0 225 225" xml:space="preserve">
<path fill="#FEFEFE" opacity="1.000000" stroke="none" 
	d="
M100.000000,226.000000 
	C67.035233,226.000000 34.070473,226.000000 1.052854,226.000000 
	C1.052854,151.115356 1.052854,76.230652 1.052854,1.000000 
	C29.353291,1.000000 57.707985,1.000000 86.489784,1.397203 
	C86.243652,3.534292 85.106247,5.243639 84.989372,7.020129 
	C84.705856,11.329493 85.047661,15.676768 84.856163,19.996296 
	C84.652924,24.580763 86.756668,26.247274 91.162468,26.112829 
	C97.076561,25.932358 103.000298,26.068113 108.820435,26.068113 
	C108.820435,28.693895 108.820435,30.654985 108.820435,32.870358 
	C105.083992,33.308784 101.460548,33.572124 97.894958,34.176674 
	C46.594051,42.874767 12.106067,88.773811 17.770350,140.751511 
	C22.195402,181.357544 53.394516,215.722214 93.222321,223.928558 
	C95.526016,224.403214 97.742783,225.299774 100.000000,226.000000 
z"/>
<path fill="#FEFEFE" opacity="1.000000" stroke="none" 
	d="
M140.000000,1.000000 
	C168.636276,1.000000 197.272537,1.000000 225.954407,1.000000 
	C225.954407,75.890060 225.954407,150.780151 225.954407,226.000000 
	C192.313156,226.000000 158.625244,226.000000 124.615417,225.616730 
	C196.617218,217.557831 237.310455,132.235306 189.683823,69.644035 
	C191.454910,67.722321 193.223038,65.803825 195.431732,63.407269 
	C197.407013,65.627998 198.764053,68.006783 200.811798,69.181290 
	C202.400238,70.092346 204.851440,69.499176 206.919144,69.574638 
	C206.938477,67.485802 207.857941,64.584045 206.827621,63.443172 
	C201.143387,57.149094 195.128098,51.125542 188.853180,45.419579 
	C187.721466,44.390484 184.851044,45.273468 182.783356,45.273678 
	C182.804810,47.365509 182.057114,49.967426 183.027176,51.430187 
	C184.499283,53.649971 187.164536,55.078503 189.594833,57.065460 
	C187.041138,59.566433 185.382721,61.190620 183.555695,62.979939 
	C165.549316,44.411320 143.616623,34.662506 118.327324,32.931034 
	C118.327324,30.355249 118.327324,28.295074 118.327324,26.067316 
	C120.465675,26.067316 122.281227,26.089252 124.096123,26.063969 
	C145.338348,25.768051 141.819183,29.132330 142.005081,7.730495 
	C142.024536,5.492971 140.700638,3.243778 140.000000,1.000000 
z"/>
<path fill="#030303" opacity="1.000000" stroke="none" 
	d="
M139.531342,1.000000 
	C140.700638,3.243778 142.024536,5.492971 142.005081,7.730495 
	C141.819183,29.132330 145.338348,25.768051 124.096123,26.063969 
	C122.281227,26.089252 120.465675,26.067316 118.327324,26.067316 
	C118.327324,28.295074 118.327324,30.355249 118.327324,32.931034 
	C143.616623,34.662506 165.549316,44.411320 183.555695,62.979939 
	C185.382721,61.190620 187.041138,59.566433 189.594833,57.065460 
	C187.164536,55.078503 184.499283,53.649971 183.027176,51.430187 
	C182.057114,49.967426 182.804810,47.365509 182.783356,45.273678 
	C184.851044,45.273468 187.721466,44.390484 188.853180,45.419579 
	C195.128098,51.125542 201.143387,57.149094 206.827621,63.443172 
	C207.857941,64.584045 206.938477,67.485802 206.919144,69.574638 
	C204.851440,69.499176 202.400238,70.092346 200.811798,69.181290 
	C198.764053,68.006783 197.407013,65.627998 195.431732,63.407269 
	C193.223038,65.803825 191.454910,67.722321 189.683823,69.644035 
	C237.310455,132.235306 196.617218,217.557831 124.146759,225.616730 
	C116.312424,226.000000 108.624847,226.000000 100.468636,226.000000 
	C97.742783,225.299774 95.526016,224.403214 93.222321,223.928558 
	C53.394516,215.722214 22.195402,181.357544 17.770350,140.751511 
	C12.106067,88.773811 46.594051,42.874767 97.894958,34.176674 
	C101.460548,33.572124 105.083992,33.308784 108.820435,32.870358 
	C108.820435,30.654985 108.820435,28.693895 108.820435,26.068113 
	C103.000298,26.068113 97.076561,25.932358 91.162468,26.112829 
	C86.756668,26.247274 84.652924,24.580763 84.856163,19.996296 
	C85.047661,15.676768 84.705856,11.329493 84.989372,7.020129 
	C85.106247,5.243639 86.243652,3.534292 86.958443,1.397203 
	C104.354225,1.000000 121.708458,1.000000 139.531342,1.000000 
M76.633476,50.026264 
	C39.926579,68.263596 20.488791,105.138794 27.049301,144.091797 
	C34.901836,190.716171 78.971100,222.898468 125.699989,216.133057 
	C174.923874,209.006439 208.299973,163.122406 199.856430,114.185951 
	C190.189972,58.161865 129.219284,26.086061 76.633476,50.026264 
M115.498856,10.010225 
	C108.408386,10.010225 101.317917,10.010225 94.153320,10.010225 
	C94.153320,12.640546 94.153320,14.558950 94.153320,16.767635 
	C107.145638,16.767635 119.846535,16.767635 132.753723,16.767635 
	C132.753723,14.455619 132.753723,12.434284 132.753723,10.010239 
	C127.083038,10.010239 121.790596,10.010239 115.498856,10.010225 
z"/>
<path fill="#525A5F" opacity="1.000000" stroke="none" 
	d="
M76.979538,49.875259 
	C129.219284,26.086061 190.189972,58.161865 199.856430,114.185951 
	C208.299973,163.122406 174.923874,209.006439 125.699989,216.133057 
	C78.971100,222.898468 34.901836,190.716171 27.049301,144.091797 
	C20.488791,105.138794 39.926579,68.263596 76.979538,49.875259 
M42.870201,96.448242 
	C37.003021,108.756416 35.042717,121.759300 35.926723,135.278503 
	C37.249020,155.500504 45.610134,172.534149 60.215351,186.247833 
	C76.677856,201.705429 96.491409,208.629593 119.129074,207.064117 
	C139.297989,205.669373 156.466705,197.500671 170.153244,182.857147 
	C187.873627,163.897736 194.365845,141.178604 190.036606,115.592590 
	C183.488785,76.894661 146.941208,45.803638 101.760506,52.453491 
	C74.936386,56.401558 55.535759,71.628151 42.870201,96.448242 
z"/>
<path fill="#545D62" opacity="1.000000" stroke="none" 
	d="
M115.998505,10.010232 
	C121.790596,10.010239 127.083038,10.010239 132.753723,10.010239 
	C132.753723,12.434284 132.753723,14.455619 132.753723,16.767635 
	C119.846535,16.767635 107.145638,16.767635 94.153320,16.767635 
	C94.153320,14.558950 94.153320,12.640546 94.153320,10.010225 
	C101.317917,10.010225 108.408386,10.010225 115.998505,10.010232 
z"/>
<path fill="#030303" opacity="1.000000" stroke="none" 
	d="
M43.017357,96.101730 
	C55.535759,71.628151 74.936386,56.401558 101.760506,52.453491 
	C146.941208,45.803638 183.488785,76.894661 190.036606,115.592590 
	C194.365845,141.178604 187.873627,163.897736 170.153244,182.857147 
	C156.466705,197.500671 139.297989,205.669373 119.129074,207.064117 
	C96.491409,208.629593 76.677856,201.705429 60.215351,186.247833 
	C45.610134,172.534149 37.249020,155.500504 35.926723,135.278503 
	C35.042717,121.759300 37.003021,108.756416 43.017357,96.101730 
M145.330078,68.096321 
	C131.217377,61.009506 116.377342,58.550945 100.819283,61.500374 
	C63.922470,68.495110 40.780636,103.317719 44.772747,137.724945 
	C49.201874,175.898773 87.448463,204.954483 125.268532,197.559250 
	C154.853241,191.774323 177.116623,169.279465 181.801224,140.438736 
	C186.493881,111.548584 172.394989,83.225853 145.330078,68.096321 
z"/>
<path fill="#E2DAD1" opacity="1.000000" stroke="none" 
	d="
M145.652451,68.282364 
	C172.394989,83.225853 186.493881,111.548584 181.801224,140.438736 
	C177.116623,169.279465 154.853241,191.774323 125.268532,197.559250 
	C87.448463,204.954483 49.201874,175.898773 44.772747,137.724945 
	C40.780636,103.317719 63.922470,68.495110 100.819283,61.500374 
	C116.377342,58.550945 131.217377,61.009506 145.652451,68.282364 
M110.382523,132.165680 
	C115.282867,134.357285 117.881615,133.037674 117.939491,128.023254 
	C118.060165,117.566078 117.959236,107.106483 117.985817,96.647964 
	C117.993507,93.620323 116.927872,91.189415 113.675919,91.101967 
	C110.100571,91.005829 109.004898,93.555527 109.014214,96.789253 
	C109.041954,106.417702 108.979675,116.046661 109.061150,125.674507 
	C109.077515,127.608238 109.572426,129.537918 110.382523,132.165680 
M151.955338,177.164703 
	C150.078583,173.760178 148.525665,170.101929 146.158966,167.081253 
	C145.264999,165.940262 141.553009,165.357086 140.786041,166.142044 
	C139.543686,167.413528 138.949722,170.207306 139.410156,172.021194 
	C139.944839,174.127502 141.844086,175.922989 143.271729,177.759567 
	C146.164825,181.481354 148.068527,181.480057 151.955338,177.164703 
M118.004631,184.307526 
	C118.004021,182.813385 118.518532,181.035049 117.886421,179.889328 
	C116.844101,178.000122 115.060608,176.519867 113.589508,174.867233 
	C112.059456,176.456863 110.077927,177.822922 109.144424,179.707962 
	C108.417923,181.175003 109.084740,183.293701 108.976357,185.113480 
	C108.774559,188.501495 109.715240,191.502228 113.469246,191.525864 
	C117.219139,191.549454 118.266739,188.581390 118.004631,184.307526 
M138.621841,89.350380 
	C141.172791,94.199921 143.789963,94.579430 147.080460,90.465324 
	C148.633438,88.523621 150.510696,86.581413 151.226822,84.318489 
	C151.733231,82.718246 151.104172,79.952522 149.919815,78.879532 
	C148.979538,78.027672 145.615143,78.238525 144.748276,79.225647 
	C142.295166,82.019012 140.572128,85.453537 138.621841,89.350380 
M85.438095,83.031914 
	C84.647461,81.962341 84.072266,80.374504 83.019028,79.936676 
	C81.128906,79.150955 78.541000,78.160820 76.986176,78.873589 
	C74.367912,80.073853 74.295479,82.788025 76.086098,85.216850 
	C77.663177,87.356033 78.968819,89.829414 80.953697,91.484261 
	C82.170815,92.499001 85.158234,93.114906 86.067032,92.361504 
	C87.356522,91.292511 87.821510,88.818451 87.934341,86.903297 
	C87.996407,85.849792 86.615829,84.711288 85.438095,83.031914 
M116.552849,68.002052 
	C113.141258,65.880180 110.192787,66.467545 109.237099,70.407303 
	C108.515030,73.384010 108.576668,76.789124 109.275284,79.772751 
	C109.630608,81.290268 112.087555,83.128220 113.729897,83.271759 
	C115.016426,83.384193 117.592941,81.206482 117.706985,79.883408 
	C118.025551,76.187546 117.363091,72.407127 116.552849,68.002052 
M66.992783,109.438057 
	C64.938026,108.795418 62.847008,108.248528 60.837154,107.487320 
	C57.941006,106.390434 55.326893,106.644798 54.219036,109.741257 
	C52.993267,113.167274 55.231586,114.956177 58.257679,115.929497 
	C59.991577,116.487190 61.733685,117.470032 63.467625,117.460350 
	C65.534241,117.448822 67.596062,116.579369 69.659966,116.081589 
	C69.009117,113.990074 68.358269,111.898567 66.992783,109.438057 
M170.098373,107.053650 
	C166.599503,107.917931 162.885757,108.331314 159.698761,109.850052 
	C158.256958,110.537132 156.994308,113.573494 157.289795,115.256157 
	C157.495193,116.425766 160.484589,117.800011 162.249039,117.826462 
	C164.446793,117.859398 166.693588,116.680290 168.866592,115.881424 
	C173.707489,114.101761 174.288666,111.502808 170.098373,107.053650 
M67.278862,148.938599 
	C70.210037,147.510437 71.369179,144.782852 69.538155,142.467056 
	C68.462006,141.105988 65.273872,140.930893 63.087811,141.065964 
	C60.855389,141.203918 58.313507,141.899414 56.607681,143.241394 
	C55.231239,144.324219 54.100376,146.863876 54.371632,148.507889 
	C54.563442,149.670349 57.305752,151.216507 58.864105,151.166885 
	C61.422264,151.085419 63.943604,149.847748 67.278862,148.938599 
M157.218307,146.897217 
	C160.824509,148.378754 164.337418,150.270782 168.086670,151.122864 
	C169.428909,151.427902 172.395676,149.460129 172.706009,148.094559 
	C173.033203,146.654678 171.466034,144.150986 170.012253,143.101456 
	C168.230804,141.815384 165.729950,141.475388 163.501190,140.869705 
	C158.604874,139.539001 157.065704,140.805679 157.218307,146.897217 
M87.036354,173.172806 
	C88.768784,170.509003 89.383034,167.838150 86.194435,165.892822 
	C82.863945,163.860901 81.041397,166.238693 79.355652,168.671906 
	C78.315865,170.172760 77.226875,171.639603 76.154129,173.117477 
	C74.419724,175.506943 74.207291,178.308365 76.920799,179.456284 
	C78.590858,180.162796 81.402550,179.117371 83.277931,178.087189 
	C84.732727,177.288025 85.531425,175.294449 87.036354,173.172806 
z"/>
<path fill="#010101" opacity="1.000000" stroke="none" 
	d="
M110.114609,131.817566 
	C109.572426,129.537918 109.077515,127.608238 109.061150,125.674507 
	C108.979675,116.046661 109.041954,106.417702 109.014214,96.789253 
	C109.004898,93.555527 110.100571,91.005829 113.675919,91.101967 
	C116.927872,91.189415 117.993507,93.620323 117.985817,96.647964 
	C117.959236,107.106483 118.060165,117.566078 117.939491,128.023254 
	C117.881615,133.037674 115.282867,134.357285 110.114609,131.817566 
z"/>
<path fill="#060606" opacity="1.000000" stroke="none" 
	d="
M151.839172,177.523743 
	C148.068527,181.480057 146.164825,181.481354 143.271729,177.759567 
	C141.844086,175.922989 139.944839,174.127502 139.410156,172.021194 
	C138.949722,170.207306 139.543686,167.413528 140.786041,166.142044 
	C141.553009,165.357086 145.264999,165.940262 146.158966,167.081253 
	C148.525665,170.101929 150.078583,173.760178 151.839172,177.523743 
z"/>
<path fill="#040404" opacity="1.000000" stroke="none" 
	d="
M118.004623,184.743347 
	C118.266739,188.581390 117.219139,191.549454 113.469246,191.525864 
	C109.715240,191.502228 108.774559,188.501495 108.976357,185.113480 
	C109.084740,183.293701 108.417923,181.175003 109.144424,179.707962 
	C110.077927,177.822922 112.059456,176.456863 113.589508,174.867233 
	C115.060608,176.519867 116.844101,178.000122 117.886421,179.889328 
	C118.518532,181.035049 118.004021,182.813385 118.004623,184.743347 
z"/>
<path fill="#060606" opacity="1.000000" stroke="none" 
	d="
M138.591675,88.992935 
	C140.572128,85.453537 142.295166,82.019012 144.748276,79.225647 
	C145.615143,78.238525 148.979538,78.027672 149.919815,78.879532 
	C151.104172,79.952522 151.733231,82.718246 151.226822,84.318489 
	C150.510696,86.581413 148.633438,88.523621 147.080460,90.465324 
	C143.789963,94.579430 141.172791,94.199921 138.591675,88.992935 
z"/>
<path fill="#060605" opacity="1.000000" stroke="none" 
	d="
M85.661896,83.321503 
	C86.615829,84.711288 87.996407,85.849792 87.934341,86.903297 
	C87.821510,88.818451 87.356522,91.292511 86.067032,92.361504 
	C85.158234,93.114906 82.170815,92.499001 80.953697,91.484261 
	C78.968819,89.829414 77.663177,87.356033 76.086098,85.216850 
	C74.295479,82.788025 74.367912,80.073853 76.986176,78.873589 
	C78.541000,78.160820 81.128906,79.150955 83.019028,79.936676 
	C84.072266,80.374504 84.647461,81.962341 85.661896,83.321503 
z"/>
<path fill="#040404" opacity="1.000000" stroke="none" 
	d="
M116.820358,68.331070 
	C117.363091,72.407127 118.025551,76.187546 117.706985,79.883408 
	C117.592941,81.206482 115.016426,83.384193 113.729897,83.271759 
	C112.087555,83.128220 109.630608,81.290268 109.275284,79.772751 
	C108.576668,76.789124 108.515030,73.384010 109.237099,70.407303 
	C110.192787,66.467545 113.141258,65.880180 116.820358,68.331070 
z"/>
<path fill="#060505" opacity="1.000000" stroke="none" 
	d="
M67.350105,109.622559 
	C68.358269,111.898567 69.009117,113.990074 69.659966,116.081589 
	C67.596062,116.579369 65.534241,117.448822 63.467625,117.460350 
	C61.733685,117.470032 59.991577,116.487190 58.257679,115.929497 
	C55.231586,114.956177 52.993267,113.167274 54.219036,109.741257 
	C55.326893,106.644798 57.941006,106.390434 60.837154,107.487320 
	C62.847008,108.248528 64.938026,108.795418 67.350105,109.622559 
z"/>
<path fill="#050505" opacity="1.000000" stroke="none" 
	d="
M170.475769,107.207214 
	C174.288666,111.502808 173.707489,114.101761 168.866592,115.881424 
	C166.693588,116.680290 164.446793,117.859398 162.249039,117.826462 
	C160.484589,117.800011 157.495193,116.425766 157.289795,115.256157 
	C156.994308,113.573494 158.256958,110.537132 159.698761,109.850052 
	C162.885757,108.331314 166.599503,107.917931 170.475769,107.207214 
z"/>
<path fill="#040404" opacity="1.000000" stroke="none" 
	d="
M66.879669,149.018097 
	C63.943604,149.847748 61.422264,151.085419 58.864105,151.166885 
	C57.305752,151.216507 54.563442,149.670349 54.371632,148.507889 
	C54.100376,146.863876 55.231239,144.324219 56.607681,143.241394 
	C58.313507,141.899414 60.855389,141.203918 63.087811,141.065964 
	C65.273872,140.930893 68.462006,141.105988 69.538155,142.467056 
	C71.369179,144.782852 70.210037,147.510437 66.879669,149.018097 
z"/>
<path fill="#050504" opacity="1.000000" stroke="none" 
	d="
M157.080292,146.514526 
	C157.065704,140.805679 158.604874,139.539001 163.501190,140.869705 
	C165.729950,141.475388 168.230804,141.815384 170.012253,143.101456 
	C171.466034,144.150986 173.033203,146.654678 172.706009,148.094559 
	C172.395676,149.460129 169.428909,151.427902 168.086670,151.122864 
	C164.337418,150.270782 160.824509,148.378754 157.080292,146.514526 
z"/>
<path fill="#050505" opacity="1.000000" stroke="none" 
	d="
M86.829056,173.502289 
	C85.531425,175.294449 84.732727,177.288025 83.277931,178.087189 
	C81.402550,179.117371 78.590858,180.162796 76.920799,179.456284 
	C74.207291,178.308365 74.419724,175.506943 76.154129,173.117477 
	C77.226875,171.639603 78.315865,170.172760 79.355652,168.671906 
	C81.041397,166.238693 82.863945,163.860901 86.194435,165.892822 
	C89.383034,167.838150 88.768784,170.509003 86.829056,173.502289 
z"/>
</svg>